<?xml version="1.0" encoding="UTF-8"?>
<svg id="a" data-name="Layer 2" xmlns="http://www.w3.org/2000/svg" viewBox="0 0 899.51 727.5">
  <path d="m184.27,422.94c-1.61-16.85-16.22-29.28-32.48-27.61l-16.37,1.68,34.32,313.65,12.05-1.24c16.25-1.67,28.23-16.82,26.62-33.68l-24.15-252.81Z" style="fill: #fff;"/>
  <path d="m752.87,401.56c-16.24-1.78-30.94,10.54-32.66,27.38l-25.79,252.64c-1.72,16.84,10.16,32.08,26.4,33.86l11.09,1.22,32.42-313.84-11.48-1.26Z" style="fill: #fff;"/>
  <path d="m887.54,447.31c1.72-16.84-10.16-32.08-26.4-33.86l-16.75-1.84c0-.34.01-.68.01-1.03C844.41,184.19,667.91,0,450.96,0S60.45,181.18,57.58,405.01l-14.13,1.45c-16.25,1.67-28.23,16.82-26.62,33.68,0,0-52.11,103.88,27.07,265.54l.9-.46c5.66,10.16,16.7,16.56,28.64,15.33l79.27-8.14-33.12-313.78c6.05-185.51,152.36-334.49,331.37-334.49s328.55,152.29,331.51,340.66l-30.84,314.01,77.47,8.51c16.24,1.78,30.94-10.54,32.66-27.38,65.6-128.91,25.79-252.64,25.79-252.64Z" style="fill: #fff;"/>
</svg>